<?xml version="1.0" encoding="utf-8"?>
<!-- Generator: Adobe Illustrator 19.0.0, SVG Export Plug-In . SVG Version: 6.00 Build 0)  -->
<svg version="1.1" id="Capa_1" xmlns="http://www.w3.org/2000/svg" xmlns:xlink="http://www.w3.org/1999/xlink" x="0px" y="0px"
	 viewBox="-41 164.9 512 512" style="enable-background:new -41 164.9 512 512;" xml:space="preserve">
<style type="text/css">
	.st0{fill:#81817A;}
</style>
<g>
	<path class="st0" d="M341.9,324.4l11.8-15.1l0.4,0.3c2.8,2.2,6.1,3.2,9.5,3.2c4.6,0,9.3-2.1,12.3-6l9.8-12.7
		c2.5-3.3,3.6-7.4,3.1-11.5s-2.6-7.8-5.9-10.3l-12.7-9.8c-3.3-2.5-7.4-3.6-11.5-3.1s-7.8,2.6-10.3,5.9l-9.8,12.7
		c-5.2,6.8-4,16.5,2.8,21.8l0.5,0.4l-11.7,15c-23.5-17.1-50.9-29.2-80.5-34.7c16.3-11.5,27-30.5,27-52c0-35.1-28.5-63.6-63.6-63.6
		s-63.6,28.5-63.6,63.6c0,21.5,10.7,40.5,27,52c-29.7,5.5-57,17.6-80.5,34.7l-11.7-15l0.5-0.4c6.8-5.2,8-15,2.8-21.8l-9.8-12.7
		c-2.5-3.3-6.2-5.4-10.3-5.9c-4.1-0.5-8.2,0.6-11.5,3.1l-12.7,9.8c-3.3,2.5-5.4,6.2-5.9,10.3c-0.5,4.1,0.6,8.2,3.1,11.5l9.8,12.7
		c3.1,4,7.7,6,12.3,6c3.3,0,6.6-1.1,9.5-3.2l0.4-0.3l11.8,15.1C40.7,361.1,13.1,415.9,13.1,477c0,110.2,89.7,199.9,199.9,199.9
		S412.9,587.2,412.9,477C412.9,415.9,385.3,361.1,341.9,324.4L341.9,324.4z M350.5,287.2l9.8-12.7c0,0,0.1-0.2,0.3-0.2
		c0.2,0,0.3,0.1,0.4,0.1l12.7,9.8c0,0,0.2,0.1,0.2,0.3c0,0.2-0.1,0.3-0.1,0.4l-9.8,12.7c-0.2,0.2-0.5,0.3-0.7,0.1l-12.7-9.8
		C350.3,287.8,350.3,287.5,350.5,287.2z M62,297.7L52.2,285c0,0-0.1-0.2-0.1-0.4s0.2-0.3,0.2-0.3l12.7-9.8c0,0,0.1-0.1,0.3-0.1
		c0,0,0,0,0.1,0c0.2,0,0.3,0.2,0.3,0.2l9.8,12.7c0.2,0.2,0.1,0.5-0.1,0.7l-12.7,9.8C62.5,297.9,62.2,297.9,62,297.7L62,297.7z
		 M197,237c-0.3,0-0.5-0.2-0.5-0.5v-16c0-0.3,0.2-0.5,0.5-0.5h32c0.3,0,0.5,0.2,0.5,0.5v16c0,0.3-0.2,0.5-0.5,0.5H197z M164.4,228.5
		c0-26.8,21.8-48.6,48.6-48.6s48.6,21.8,48.6,48.6c0,24.3-17.9,44.4-41.1,48V252h8.5c8.6,0,15.5-7,15.5-15.5v-16
		c0-8.6-7-15.5-15.5-15.5h-32c-8.6,0-15.5,7-15.5,15.5v16c0,8.6,7,15.5,15.5,15.5h8.5v24.5C182.2,272.9,164.4,252.8,164.4,228.5
		L164.4,228.5z M213,661.9C111.1,661.9,28.1,579,28.1,477s83-184.9,184.9-184.9s184.9,83,184.9,184.9S314.9,661.9,213,661.9z"/>
	<path class="st0" d="M60.4,469.8c1.8-38.1,17.6-73.9,44.6-100.9s62.8-42.8,100.9-44.6c37.8-1.8,74.7,10.4,103.9,34.3
		c3.2,2.6,7.9,2.2,10.6-1s2.2-7.9-1-10.6c-32-26.2-72.6-39.6-114.1-37.7c-41.8,1.9-81.2,19.3-110.8,49c-29.6,29.6-47,69-49,110.8
		c-1.9,41.5,11.5,82.1,37.7,114.1c1.5,1.8,3.6,2.7,5.8,2.7c1.7,0,3.4-0.6,4.7-1.7c3.2-2.6,3.7-7.4,1-10.6
		C70.8,544.5,58.6,507.7,60.4,469.8L60.4,469.8z"/>
	<path class="st0" d="M342.9,370.8c-2.6-3.2-7.4-3.7-10.6-1c-3.2,2.6-3.7,7.4-1,10.6c23.9,29.2,36.1,66.1,34.3,103.9
		c-1.8,38.1-17.6,73.9-44.6,100.9s-62.8,42.8-100.9,44.6c-37.8,1.8-74.7-10.4-103.9-34.3c-3.2-2.6-7.9-2.2-10.6,1
		c-2.6,3.2-2.2,7.9,1,10.6c30,24.6,67.4,37.9,106.2,37.9c2.6,0,5.3-0.1,7.9-0.2c41.8-1.9,81.2-19.3,110.8-49
		c29.6-29.6,47-69,49-110.8C382.6,443.3,369.2,402.8,342.9,370.8L342.9,370.8z"/>
	<path class="st0" d="M220.5,364.8v-16c0-4.1-3.4-7.5-7.5-7.5s-7.5,3.4-7.5,7.5v16c0,4.1,3.4,7.5,7.5,7.5S220.5,368.9,220.5,364.8z"
		/>
	<path class="st0" d="M205.5,589.2v16c0,4.1,3.4,7.5,7.5,7.5s7.5-3.4,7.5-7.5v-16c0-4.1-3.4-7.5-7.5-7.5S205.5,585.1,205.5,589.2z"
		/>
	<path class="st0" d="M348.8,477c0-4.1-3.4-7.5-7.5-7.5h-16c-4.1,0-7.5,3.4-7.5,7.5s3.4,7.5,7.5,7.5h16
		C345.4,484.5,348.8,481.1,348.8,477z"/>
	<path class="st0" d="M84.7,469.5c-4.1,0-7.5,3.4-7.5,7.5s3.4,7.5,7.5,7.5h16c4.1,0,7.5-3.4,7.5-7.5s-3.4-7.5-7.5-7.5H84.7z"/>
	<path class="st0" d="M115.8,428.4c2.6,0,5.1-1.3,6.5-3.8c2.1-3.6,0.8-8.2-2.7-10.2l-13.9-8c-3.6-2.1-8.2-0.8-10.2,2.7
		c-2.1,3.6-0.8,8.2,2.7,10.2l13.9,8C113.2,428.1,114.5,428.4,115.8,428.4z"/>
	<path class="st0" d="M313.9,526.6c-3.6-2.1-8.2-0.8-10.2,2.7c-2.1,3.6-0.8,8.2,2.7,10.2l13.9,8c1.2,0.7,2.5,1,3.7,1
		c2.6,0,5.1-1.3,6.5-3.8c2.1-3.6,0.8-8.2-2.7-10.2L313.9,526.6z"/>
	<path class="st0" d="M269.1,387.3c2.6,0,5.1-1.3,6.5-3.8l8-13.9c2.1-3.6,0.8-8.2-2.7-10.2c-3.6-2.1-8.2-0.8-10.2,2.7l-8,13.9
		c-2.1,3.6-0.8,8.2,2.7,10.2C266.5,387,267.8,387.3,269.1,387.3L269.1,387.3z"/>
	<path class="st0" d="M145.1,594.6c1.2,0.7,2.5,1,3.7,1c2.6,0,5.1-1.3,6.5-3.8l8-13.9c2.1-3.6,0.8-8.2-2.7-10.2
		c-3.6-2.1-8.2-0.8-10.2,2.7l-8,13.9C140.3,587.9,141.5,592.5,145.1,594.6z"/>
	<path class="st0" d="M306.4,414.4c-3.6,2.1-4.8,6.7-2.7,10.2c1.4,2.4,3.9,3.8,6.5,3.8c1.3,0,2.6-0.3,3.7-1l13.9-8
		c3.6-2.1,4.8-6.7,2.7-10.2c-2.1-3.6-6.7-4.8-10.2-2.7L306.4,414.4z"/>
	<path class="st0" d="M119.6,539.6c3.6-2.1,4.8-6.7,2.7-10.2c-2.1-3.6-6.7-4.8-10.2-2.7l-13.9,8c-3.6,2.1-4.8,6.7-2.7,10.2
		c1.4,2.4,3.9,3.8,6.5,3.8c1.3,0,2.6-0.3,3.7-1L119.6,539.6z"/>
	<path class="st0" d="M150.4,383.6c1.4,2.4,3.9,3.8,6.5,3.8c1.3,0,2.6-0.3,3.7-1c3.6-2.1,4.8-6.7,2.7-10.2l-8-13.9
		c-2.1-3.6-6.7-4.8-10.2-2.7c-3.6,2.1-4.8,6.7-2.7,10.2L150.4,383.6z"/>
	<path class="st0" d="M265.4,567.7c-3.6,2.1-4.8,6.7-2.7,10.2l8,13.9c1.4,2.4,3.9,3.8,6.5,3.8c1.3,0,2.6-0.3,3.7-1
		c3.6-2.1,4.8-6.7,2.7-10.2l-8-13.9C273.5,566.9,268.9,565.6,265.4,567.7L265.4,567.7z"/>
	<path class="st0" d="M331.3,437.7L232.6,464c-4.2-6.3-11.4-10.5-19.6-10.5c-12.5,0-22.7,9.8-23.5,22l-26.6,7.1
		c-4,1.1-6.4,5.2-5.3,9.2c0.9,3.4,3.9,5.6,7.2,5.6c0.6,0,1.3-0.1,1.9-0.3l26.6-7.1c4.2,6.3,11.4,10.5,19.6,10.5
		c12.5,0,22.7-9.8,23.5-22l98.7-26.3c4-1.1,6.4-5.2,5.3-9.2C339.4,439,335.3,436.6,331.3,437.7L331.3,437.7z M213,485.5
		c-4.7,0-8.5-3.8-8.5-8.5s3.8-8.5,8.5-8.5s8.5,3.8,8.5,8.5S217.7,485.5,213,485.5z"/>
</g>
</svg>
