<svg id="Capa_1" enable-background="new 0 0 512 512" height="512" viewBox="0 0 512 512" width="512" xmlns="http://www.w3.org/2000/svg"><g><path d="m384.949 159.514 11.785-15.059.361.278c2.817 2.171 6.148 3.222 9.457 3.222 4.65 0 9.253-2.077 12.306-6.036l9.789-12.697c2.531-3.282 3.632-7.354 3.1-11.464s-2.632-7.768-5.914-10.298l-12.697-9.789c-3.283-2.531-7.359-3.633-11.464-3.101-4.11.531-7.768 2.632-10.298 5.914l-9.789 12.697c-5.224 6.776-3.962 16.538 2.813 21.762l.456.352-11.708 14.96c-23.525-17.074-50.896-29.151-80.549-34.66 16.324-11.527 27.015-30.524 27.015-51.983.001-35.075-28.536-63.612-63.612-63.612s-63.613 28.537-63.613 63.613c0 21.459 10.691 40.456 27.015 51.983-29.654 5.51-57.024 17.586-80.549 34.66l-11.708-14.96.456-.352c6.775-5.224 8.038-14.986 2.813-21.762l-9.789-12.697c-2.53-3.282-6.188-5.382-10.298-5.914-4.11-.531-8.182.57-11.464 3.1l-12.696 9.789c-3.283 2.531-5.383 6.188-5.915 10.298s.569 8.182 3.1 11.464l9.789 12.697c3.053 3.959 7.655 6.035 12.306 6.035 3.308 0 6.64-1.051 9.457-3.222l.361-.278 11.785 15.059c-43.358 36.695-70.938 91.482-70.938 152.599.001 110.219 89.67 199.888 199.888 199.888s199.887-89.669 199.887-199.887c0-61.117-27.58-115.904-70.938-152.599zm8.515-37.173 9.789-12.697c.032-.042.13-.169.343-.197.212-.028.339.071.381.103l12.697 9.789c.042.032.169.131.197.343.027.212-.071.339-.103.381l-9.789 12.696c-.174.225-.5.268-.724.094l-12.697-9.789c-.226-.173-.268-.498-.094-.723zm-288.443 10.419-9.789-12.697c-.032-.042-.13-.169-.103-.381s.155-.31.197-.343l12.697-9.79c.037-.028.14-.108.308-.108.023 0 .047.001.073.005.212.027.311.155.343.197l9.789 12.697c.174.226.132.55-.094.724l-12.697 9.789c-.225.175-.55.132-.724-.093zm134.947-60.615c-.285 0-.516-.231-.516-.516v-16.032c0-.285.231-.516.516-.516h32.064c.285 0 .516.231.516.516v16.032c0 .285-.231.516-.516.516zm-32.581-8.532c0-26.805 21.808-48.613 48.613-48.613s48.613 21.808 48.613 48.613c0 24.255-17.856 44.416-41.113 48.033v-24.5h8.532c8.556 0 15.516-6.96 15.516-15.516v-16.033c0-8.556-6.96-15.516-15.516-15.516h-32.064c-8.556 0-15.516 6.96-15.516 15.516v16.032c0 8.556 6.96 15.516 15.516 15.516h8.532v24.5c-23.257-3.617-41.113-23.777-41.113-48.032zm48.613 433.387c-101.947 0-184.887-82.94-184.887-184.887s82.94-184.887 184.887-184.887 184.887 82.94 184.887 184.887-82.94 184.887-184.887 184.887z"/><path d="m103.353 304.935c1.773-38.079 17.607-73.907 44.585-100.884s62.806-42.812 100.884-44.585c37.833-1.76 74.719 10.427 103.88 34.32 3.205 2.625 7.93 2.156 10.555-1.048s2.156-7.929-1.048-10.555c-32.035-26.246-72.554-39.632-114.085-37.7-41.82 1.948-81.167 19.336-110.793 48.963-29.626 29.626-47.015 68.973-48.962 110.793-1.935 41.535 11.454 82.051 37.701 114.085 1.483 1.81 3.635 2.747 5.806 2.747 1.672 0 3.354-.556 4.749-1.699 3.204-2.625 3.673-7.35 1.048-10.554-23.894-29.165-36.082-66.057-34.32-103.883z"/><path d="m385.93 205.904c-2.625-3.205-7.35-3.673-10.555-1.048-3.204 2.625-3.673 7.351-1.048 10.555 23.893 29.163 36.082 66.055 34.32 103.881-1.774 38.079-17.608 73.907-44.585 100.884s-62.806 42.812-100.884 44.585c-37.829 1.766-74.718-10.426-103.88-34.319-3.205-2.626-7.93-2.156-10.555 1.048s-2.156 7.93 1.048 10.555c30.003 24.582 67.441 37.884 106.193 37.884 2.624 0 5.258-.062 7.892-.184 41.82-1.948 81.167-19.336 110.793-48.962s47.015-68.973 48.962-110.793c1.934-41.536-11.454-82.052-37.701-114.086z"/><path d="m263.5 199.887v-16.032c0-4.142-3.358-7.5-7.5-7.5s-7.5 3.358-7.5 7.5v16.032c0 4.142 3.358 7.5 7.5 7.5s7.5-3.358 7.5-7.5z"/><path d="m248.5 424.339v16.032c0 4.142 3.358 7.5 7.5 7.5s7.5-3.358 7.5-7.5v-16.032c0-4.142-3.358-7.5-7.5-7.5s-7.5 3.358-7.5 7.5z"/><path d="m391.758 312.113c0-4.142-3.358-7.5-7.5-7.5h-16.033c-4.142 0-7.5 3.358-7.5 7.5s3.358 7.5 7.5 7.5h16.033c4.142 0 7.5-3.358 7.5-7.5z"/><path d="m127.742 304.613c-4.142 0-7.5 3.358-7.5 7.5s3.358 7.5 7.5 7.5h16.033c4.142 0 7.5-3.358 7.5-7.5s-3.358-7.5-7.5-7.5z"/><path d="m158.803 263.501c2.592 0 5.113-1.345 6.502-3.751 2.071-3.587.842-8.174-2.745-10.245l-13.884-8.016c-3.588-2.072-8.174-.843-10.245 2.745-2.071 3.587-.842 8.174 2.745 10.245l13.884 8.016c1.181.682 2.47 1.006 3.743 1.006z"/><path d="m356.94 361.731c-3.588-2.072-8.174-.843-10.245 2.745-2.071 3.587-.842 8.174 2.745 10.245l13.884 8.016c1.181.682 2.471 1.006 3.743 1.006 2.592 0 5.113-1.345 6.502-3.751 2.071-3.587.842-8.174-2.745-10.245z"/><path d="m312.106 222.424c2.592 0 5.113-1.345 6.502-3.751l8.016-13.885c2.071-3.587.842-8.174-2.745-10.245-3.588-2.072-8.175-.842-10.245 2.745l-8.016 13.885c-2.071 3.587-.842 8.174 2.745 10.245 1.181.682 2.47 1.006 3.743 1.006z"/><path d="m188.121 429.683c1.181.682 2.471 1.006 3.743 1.006 2.592 0 5.113-1.346 6.502-3.751l8.016-13.884c2.071-3.587.842-8.174-2.745-10.245-3.587-2.072-8.174-.842-10.245 2.745l-8.016 13.884c-2.071 3.587-.842 8.174 2.745 10.245z"/><path d="m349.44 249.505c-3.587 2.071-4.816 6.658-2.745 10.245 1.389 2.406 3.91 3.751 6.502 3.751 1.272 0 2.562-.324 3.743-1.006l13.884-8.016c3.587-2.071 4.816-6.658 2.745-10.245-2.071-3.588-6.658-4.816-10.245-2.745z"/><path d="m162.56 374.721c3.587-2.071 4.816-6.658 2.745-10.245-2.071-3.588-6.658-4.816-10.245-2.745l-13.884 8.016c-3.587 2.071-4.816 6.658-2.745 10.245 1.389 2.406 3.91 3.751 6.502 3.751 1.272 0 2.562-.324 3.743-1.006z"/><path d="m193.392 218.673c1.389 2.406 3.91 3.751 6.502 3.751 1.272 0 2.562-.324 3.743-1.006 3.587-2.071 4.816-6.658 2.745-10.245l-8.016-13.885c-2.071-3.588-6.658-4.816-10.245-2.745s-4.816 6.658-2.745 10.245z"/><path d="m308.363 402.808c-3.587 2.071-4.816 6.658-2.745 10.245l8.016 13.884c1.389 2.406 3.91 3.751 6.502 3.751 1.272 0 2.562-.324 3.743-1.006 3.587-2.071 4.816-6.658 2.745-10.245l-8.016-13.884c-2.071-3.587-6.659-4.816-10.245-2.745z"/><path d="m374.309 272.802-98.701 26.32c-4.219-6.347-11.432-10.541-19.609-10.541-12.471 0-22.702 9.753-23.479 22.031l-26.552 7.081c-4.002 1.067-6.381 5.177-5.314 9.179.895 3.355 3.927 5.57 7.242 5.57.64 0 1.29-.083 1.938-.255l26.558-7.082c4.219 6.347 11.432 10.541 19.608 10.541 12.471 0 22.702-9.753 23.479-22.031l98.695-26.319c4.002-1.067 6.381-5.177 5.314-9.179-1.067-4.003-5.176-6.382-9.179-5.315zm-118.309 47.843c-4.705 0-8.532-3.828-8.532-8.532 0-4.705 3.828-8.532 8.532-8.532s8.532 3.828 8.532 8.532c0 4.705-3.827 8.532-8.532 8.532z"/></g></svg>