<?xml version="1.0" encoding="utf-8"?>
<!-- Generator: Adobe Illustrator 19.0.0, SVG Export Plug-In . SVG Version: 6.00 Build 0)  -->
<svg version="1.1" id="Layer_5" xmlns="http://www.w3.org/2000/svg" xmlns:xlink="http://www.w3.org/1999/xlink" x="0px" y="0px"
	 viewBox="-41 164.9 512 512" style="enable-background:new -41 164.9 512 512;" xml:space="preserve">
<style type="text/css">
	.st0{fill:#81817A;}
</style>
<g>
	<path class="st0" d="M417,440.1V283.3c27.1-3.9,48-27.2,48-55.4c0-30.9-25.1-56-56-56s-56,25.1-56,56H-31v320h240.4
		c4.2,66.8,59.7,120,127.6,120c70.6,0,128-57.4,128-128C465,499.6,446.2,463.6,417,440.1z M409,187.9c22.1,0,40,17.9,40,40
		s-17.9,40-40,40s-40-17.9-40-40S386.9,187.9,409,187.9z M-15,243.9h370.4c1.9,6.4,5,12.3,8.9,17.5l-48.9,48.9
		c-3.1-1.5-6.6-2.4-10.3-2.4s-7.2,0.9-10.3,2.4l-16.1-16.1c1.5-3.1,2.4-6.6,2.4-10.3c0-13.2-10.8-24-24-24s-24,10.8-24,24
		c0,3.7,0.9,7.2,2.4,10.3l-40.1,40.1c-3.1-1.5-6.6-2.4-10.3-2.4c-13.2,0-24,10.8-24,24s10.8,24,24,24s24-10.8,24-24
		c0-3.7-0.9-7.2-2.4-10.3l40.1-40.1c3.1,1.5,6.6,2.4,10.3,2.4c3.7,0,7.2-0.9,10.3-2.4l16.1,16.1c-1.5,3.1-2.4,6.6-2.4,10.3
		c0,13.2,10.8,24,24,24s24-10.8,24-24c0-3.7-0.9-7.2-2.4-10.3l48.9-48.9c7.3,5.5,16,9.2,25.5,10.6v146c-18.9-11-40.7-17.3-64-17.3
		c-38.2,0-72.5,16.9-96,43.6V420h-48v96h18.3c-1,5.2-1.6,10.6-1.9,16H-15V243.9z M305,323.9c4.4,0,8,3.6,8,8s-3.6,8-8,8s-8-3.6-8-8
		S300.6,323.9,305,323.9z M249,283.9c0-4.4,3.6-8,8-8s8,3.6,8,8s-3.6,8-8,8S249,288.3,249,283.9z M193,355.9c0,4.4-3.6,8-8,8
		s-8-3.6-8-8s3.6-8,8-8S193,351.5,193,355.9z M337,603.9c-35.3,0-64-28.7-64-64s28.7-64,64-64s64,28.7,64,64S372.3,603.9,337,603.9z
		 M225,478.1c-3.8,6.9-7,14.2-9.5,21.8H209v-64h16V478.1z M329,428.3v32c-40.4,4-72,38.2-72,79.6c0,11.7,2.6,22.8,7.1,32.8l-27.8,16
		c-7.2-14.8-11.4-31.3-11.4-48.9C225,480.8,271,432.4,329,428.3L329,428.3z M337,651.9c-38.5,0-72.5-19.5-92.7-49.2l27.9-16.1
		c14.5,20.1,38.2,33.3,64.8,33.3s50.3-13.2,64.8-33.3l27.9,16.1C409.5,632.3,375.5,651.9,337,651.9z M437.6,588.7l-27.8-16
		c4.5-10,7.1-21.1,7.1-32.8c0-41.4-31.6-75.6-72-79.6v-32c58,4.1,104,52.5,104,111.6C449,557.4,444.8,574,437.6,588.7L437.6,588.7z"
		/>
	<path class="st0" d="M337,491.9c-26.5,0-48,21.5-48,48s21.5,48,48,48s48-21.5,48-48S363.5,491.9,337,491.9z M337,571.9
		c-17.6,0-32-14.4-32-32s14.4-32,32-32s32,14.4,32,32S354.6,571.9,337,571.9z"/>
	<path class="st0" d="M1,259.9h16v16H1V259.9z"/>
	<path class="st0" d="M33,259.9h112v16H33V259.9z"/>
	<path class="st0" d="M1,291.9h16v16H1V291.9z"/>
	<path class="st0" d="M33,291.9h112v16H33V291.9z"/>
	<path class="st0" d="M1,323.9h16v16H1V323.9z"/>
	<path class="st0" d="M33,323.9h112v16H33V323.9z"/>
	<path class="st0" d="M1,355.9h16v16H1V355.9z"/>
	<path class="st0" d="M33,355.9h112v16H33V355.9z"/>
	<path class="st0" d="M1,515.9h48v-80H1V515.9z M17,451.9h16v48H17V451.9z"/>
	<path class="st0" d="M65,515.9h48v-64H65V515.9z M81,467.9h16v32H81V467.9z"/>
	<path class="st0" d="M129,515.9h48v-128h-48V515.9z M145,403.9h16v96h-16V403.9z"/>
</g>
</svg>
