<?xml version="1.0" encoding="utf-8"?>
<!-- Generator: Adobe Illustrator 19.0.0, SVG Export Plug-In . SVG Version: 6.00 Build 0)  -->
<svg version="1.1" id="Capa_1" xmlns="http://www.w3.org/2000/svg" xmlns:xlink="http://www.w3.org/1999/xlink" x="0px" y="0px"
	 viewBox="-41 164.9 512 512" style="enable-background:new -41 164.9 512 512;" xml:space="preserve">
<style type="text/css">
	.st0{fill:#81817A;}
</style>
<g>
	<g>
		<path class="st0" d="M441,190.9H-11c-16.5,0-30,13.5-30,30v300c0,16.5,13.5,30,30,30h176v41c-19.6,4-35,19.4-39,39H95
			c-5.5,0-10,4.5-10,10s4.5,10,10,10h240c5.5,0,10-4.5,10-10s-4.5-10-10-10h-31c-4-19.6-19.4-35-39-39v-41h176c16.5,0,30-13.5,30-30
			v-300C471,204.3,457.5,190.9,441,190.9z M283.3,630.9H146.7c4.1-11.6,15.2-20,28.3-20h80C268,610.9,279.2,619.3,283.3,630.9z
			 M185,590.9v-40h60v40H185z M451,520.9c0,5.5-4.5,10-10,10H-11c-5.5,0-10-4.5-10-10v-51h472V520.9z M451,449.9H-21v-229
			c0-5.5,4.5-10,10-10h452c5.5,0,10,4.5,10,10V449.9z"/>
	</g>
</g>
<g>
	<g>
		<path class="st0" d="M236,490.9h-40c-5.5,0-10,4.5-10,10s4.5,10,10,10h40c5.5,0,10-4.5,10-10S241.5,490.9,236,490.9z"/>
	</g>
</g>
<g>
	<g>
		<path class="st0" d="M354.5,230.2c-16.5,0-30,13.5-30,30c0,4.6,1,8.9,2.9,12.9l-80,80c-4-1.9-8.4-2.9-12.9-2.9
			c-4.6,0-9,1-12.9,2.9l-20-20c1.9-4,2.9-8.4,2.9-12.9c0-16.5-13.5-30-30-30s-30,13.5-30,30c0,4.6,1,8.9,2.9,12.9l-40,40
			c-4-1.9-8.4-2.9-12.9-2.9c-16.5,0-30,13.5-30,30c0,16.5,13.5,30,30,30s30-13.5,30-30c0-4.6-1-9-2.9-12.9l40-40
			c4,1.9,8.4,2.9,12.9,2.9s8.9-1,12.9-2.9l20,20c-1.9,4-2.9,8.4-2.9,12.9c0,16.5,13.5,30,30,30s30-13.5,30-30c0-4.6-1-9-2.9-12.9
			l80-80c4,1.9,8.4,2.9,12.9,2.9c16.5,0,30-13.5,30-30C384.5,243.6,371,230.2,354.5,230.2z M94.5,410.2c-5.5,0-10-4.5-10-10
			c0-5.5,4.5-10,10-10c5.4,0,10,4.4,10,10C104.5,405.7,100,410.2,94.5,410.2z M174.5,330.2c-5.5,0-10-4.5-10-10c0-5.5,4.5-10,10-10
			s10,4.5,10,10C184.5,325.7,180,330.2,174.5,330.2z M234.5,390.2c-5.5,0-10-4.5-10-10c0-5.6,4.5-10,10-10c5.5,0,10,4.4,10,10
			C244.5,385.7,240,390.2,234.5,390.2z M354.5,270.2c-5.5,0-10-4.5-10-10c0-5.5,4.5-10,10-10s10,4.5,10,10
			C364.5,265.7,360,270.2,354.5,270.2z"/>
	</g>
</g>
</svg>
