<?xml version="1.0" encoding="utf-8"?>
<!-- Generator: Adobe Illustrator 19.0.0, SVG Export Plug-In . SVG Version: 6.00 Build 0)  -->
<svg version="1.1" id="Layer_5" xmlns="http://www.w3.org/2000/svg" xmlns:xlink="http://www.w3.org/1999/xlink" x="0px" y="0px"
	 viewBox="-41 164.9 512 512" style="enable-background:new -41 164.9 512 512;" xml:space="preserve">
<style type="text/css">
	.st0{fill:#81817A;}
</style>
<g>
	<path class="st0" d="M59,246.2l10.2,30.7H107v-16H80.8L59,195.6L33.5,272l-9.6-19.2H-5v16h19.1l22.4,44.8L59,246.2z"/>
	<path class="st0" d="M419,548.9c22.1,0,40-17.9,40-40v-208c0-19.4-14-35.6-32.4-39.2c-3.7-45.1-41.6-80.8-87.6-80.8
		c-45.8,0-83.5,35.2-87.6,80H139c0-48.5-39.5-88-88-88s-88,39.5-88,88c0,27.7,13.1,53.7,34.9,70.2C-13.7,341.3-21,356.2-21,372.9v16
		v8v21.4c0,31.8,19.1,60,48,72.1v22.5c-28.6,16.1-48,46.6-48,81.7v74.3h182.8v-0.2c8.3-0.4,16.4-2.3,24-5.8l65.1-29.6
		c2.5-1.2,4.8-2.7,6.8-4.5H291c10.4,0,19.2-6.7,22.5-16H435c13.2,0,24-10.8,24-24s-10.8-24-24-24h-48c-4.4,0-8-3.6-8-8v-8L419,548.9
		L419,548.9z M419,532.9H142.9c-13.4-15.2-31.6-26-51.9-30.1V491c4-1.3,7.7-3.4,10.9-6.1H443v24C443,522.1,432.2,532.9,419,532.9z
		 M275,564.9h-14.1c-16.4,0-32,7.6-41.9,19.8v-35.8h64v16.8C280.4,565.2,277.7,564.9,275,564.9z M169.5,609.9l-4.1-28.5
		c-1.7-11.7-5.5-22.6-11.1-32.4H203v45.8L169.5,609.9z M63.9,380.9l5.8-11.6c1.4-2.7,4.1-4.4,7.2-4.4H123c4.4,0,8,3.6,8,8
		s-3.6,8-8,8H63.9z M339,196.9c39.7,0,72,32.3,72,72s-32.3,72-72,72s-72-32.3-72-72S299.3,196.9,339,196.9z M251.4,276.9
		c4.1,44.8,41.8,80,87.6,80c45.4,0,82.8-34.5,87.5-78.7c9.6,3.2,16.5,12.1,16.5,22.7v168H112.4c1.2-4.1,1.8-8.4,1.3-12.8l-5.9-59.2
		H123c13.2,0,24-10.8,24-24s-10.8-24-24-24h-16.8c-1.1-5.4-3.4-10.4-6.5-14.8c20-13.2,33.4-33.8,37.7-57.2L251.4,276.9z M-21,260.9
		c0-39.7,32.3-72,72-72s72,32.3,72,72c0,25.7-13.5,48.8-35.4,61.8c-6-3.7-13.1-5.8-20.6-5.8H35c-8,0-15.6,1.7-22.4,4.7
		C-8.2,308.5-21,285.6-21,260.9z M-5,372.9c0-22.1,17.9-40,40-40h32c10.4,0,19.3,6.7,22.6,16H76.9c-9.2,0-17.4,5.1-21.5,13.3
		L46,380.9H-5V372.9z M-5,418.3v-21.4h21.9c-3.8,5.9-5.9,12.8-5.9,20c0,9.7,3.9,19.3,10.8,26.1l5.2,5.2v24.3
		C7.5,461.7-5,441.2-5,418.3L-5,418.3z M33.1,431.7c-3.9-3.9-6.1-9.3-6.1-14.8c0-5.6,2.2-10.9,6.1-14.8l5.2-5.2h53.4l6.1,60.8
		c0.5,5.2-1.3,10.4-5,14.1c-3.2,3.2-7.8,5.1-12.4,5.1H59v16h16v8.1c-0.8,0-1.5-0.1-2.3-0.1c-10.4,0-20.3,1.8-29.7,4.9v-64.2
		L33.1,431.7z M179.2,648.4c-6.6,3-13.6,4.5-20.8,4.5c-22.4,0-41.7-14.4-48.2-35.8l-11.5-38.5l-15.3,4.6l11.5,38.5
		c3.8,12.6,11.1,23.2,20.5,31.2H-5v-58.3c0-42.8,34.8-77.7,77.7-77.7c38.4,0,71.5,28.7,76.9,66.7l4.7,33.2l-10.6,4.8l6.6,14.6
		l47.4-21.5l9.4,21.1L179.2,648.4z M244.3,618.8l-22.6,10.3l-9.4-21.1l22.2-10.1c1.5-0.7,3.1-1,5-1c6.3,0,11.5,5.2,11.5,11.5
		C251,612.8,248.4,616.9,244.3,618.8z M291,612.9h-24.4c0.3-1.5,0.4-3,0.4-4.5c0-11.7-7.3-21.6-17.7-25.6c3.7-1.2,7.6-1.9,11.6-1.9
		H275c13.2,0,24,10.8,24,24C299,609.3,295.4,612.9,291,612.9L291,612.9z M387,580.9h48c4.4,0,8,3.6,8,8s-3.6,8-8,8H314.2
		c-2-9.7-7.6-18-15.2-23.8v-24.2h64v8C363,570.1,373.8,580.9,387,580.9L387,580.9z"/>
	<path class="st0" d="M411,500.9h16v16h-16V500.9z"/>
	<path class="st0" d="M347,500.9h16v16h-16V500.9z"/>
	<path class="st0" d="M379,500.9h16v16h-16V500.9z"/>
	<path class="st0" d="M291,228.9h16v16h-16V228.9z"/>
	<path class="st0" d="M323,228.9h64v16h-64V228.9z"/>
	<path class="st0" d="M291,260.9h16v16h-16V260.9z"/>
	<path class="st0" d="M323,260.9h64v16h-64V260.9z"/>
	<path class="st0" d="M291,292.9h16v16h-16V292.9z"/>
	<path class="st0" d="M323,292.9h64v16h-64V292.9z"/>
	<path class="st0" d="M243,388.9h-80v64h80V388.9z M227,436.9h-48v-32h48V436.9z"/>
	<path class="st0" d="M163,356.9h80v16h-80V356.9z"/>
	<path class="st0" d="M163,324.9h80v16h-80V324.9z"/>
	<path class="st0" d="M163,292.9h80v16h-80V292.9z"/>
	<path class="st0" d="M259,436.9h16v16h-16V436.9z"/>
	<path class="st0" d="M291,436.9h136v16H291V436.9z"/>
	<path class="st0" d="M259,404.9h168v16H259V404.9z"/>
	<path class="st0" d="M259,372.9h168v16H259V372.9z"/>
</g>
</svg>
