<?xml version="1.0" encoding="iso-8859-1"?>
<!-- Generator: Adobe Illustrator 19.0.0, SVG Export Plug-In . SVG Version: 6.00 Build 0)  -->
<svg version="1.1" id="Capa_1" xmlns="http://www.w3.org/2000/svg" xmlns:xlink="http://www.w3.org/1999/xlink" x="0px" y="0px"
	 viewBox="0 0 512 512" style="enable-background:new 0 0 512 512;" xml:space="preserve">
<g>
	<g>
		<path d="M484.622,49.541c0-8.326-6.773-15.099-15.099-15.099H42.477c-8.326,0-15.099,6.772-15.099,15.099V282.65
			c0,8.145,6.772,14.771,15.099,14.771h427.047c8.326,0,15.1-6.626,15.1-14.771L484.622,49.541z M42.477,282.419
			c-0.04,0-0.072-0.004-0.098-0.011c0.053-243.414-0.108-232.965,0.098-232.965h427.047c0.048,0,0.098,0.05,0.098,0.098
			l0.001,232.868C469.521,282.434,479.444,282.415,42.477,282.419z"/>
	</g>
</g>
<g>
	<g>
		<path d="M253.255,335.847c-12.036,0-21.827,9.792-21.827,21.826c0,12.036,9.792,21.827,21.827,21.827
			c12.035,0,21.826-9.792,21.826-21.827C275.082,345.639,265.29,335.847,253.255,335.847z M253.255,364.5
			c-3.763,0-6.826-3.062-6.826-6.826s3.063-6.825,6.826-6.825c3.763,0,6.825,3.062,6.825,6.825S257.019,364.5,253.255,364.5z"/>
	</g>
</g>
<g>
	<g>
		<path d="M426.247,103.358H282.601c-4.143,0-7.5,3.357-7.5,7.5c0,4.143,3.357,7.5,7.5,7.5h143.646c4.143,0,7.5-3.357,7.5-7.5
			C433.747,106.715,430.389,103.358,426.247,103.358z"/>
	</g>
</g>
<g>
	<g>
		<path d="M426.247,131.597H282.601c-4.143,0-7.5,3.357-7.5,7.5c0,4.143,3.357,7.5,7.5,7.5h143.646c4.143,0,7.5-3.357,7.5-7.5
			C433.747,134.954,430.389,131.597,426.247,131.597z"/>
	</g>
</g>
<g>
	<g>
		<path d="M426.247,159.835H249.431c-4.143,0-7.5,3.357-7.5,7.5s3.357,7.5,7.5,7.5h176.816c4.143,0,7.5-3.357,7.5-7.5
			S430.389,159.835,426.247,159.835z"/>
	</g>
</g>
<g>
	<g>
		<path d="M426.247,188.571H249.431c-4.143,0-7.5,3.357-7.5,7.5s3.357,7.5,7.5,7.5h176.816c4.143,0,7.5-3.357,7.5-7.5
			S430.389,188.571,426.247,188.571z"/>
	</g>
</g>
<g>
	<g>
		<path d="M426.247,216.707H249.431c-4.143,0-7.5,3.357-7.5,7.5c0,4.143,3.357,7.5,7.5,7.5h176.816c4.143,0,7.5-3.357,7.5-7.5
			C433.747,220.064,430.389,216.707,426.247,216.707z"/>
	</g>
</g>
<g>
	<g>
		<path d="M140.18,127.476c-14.849,0-26.929,12.081-26.929,26.93c0,14.849,12.08,26.929,26.929,26.929
			c14.848,0,26.928-12.08,26.928-26.929C167.108,139.556,155.028,127.476,140.18,127.476z M140.18,166.334
			c-6.576,0-11.928-5.351-11.928-11.928c0-6.578,5.351-11.929,11.928-11.929s11.927,5.351,11.927,11.929
			C152.107,160.983,146.757,166.334,140.18,166.334z"/>
	</g>
</g>
<g>
	<g>
		<path d="M178.19,248.72h-76.02c-4.143,0-7.5,3.357-7.5,7.5c0,4.143,3.357,7.5,7.5,7.5h76.02c4.143,0,7.5-3.357,7.5-7.5
			C185.69,252.077,182.332,248.72,178.19,248.72z"/>
	</g>
</g>
<g>
	<g>
		<path d="M210.606,68.141c-19.447,0-36.055,12.379-42.365,29.67h-29.987c-4.143,0-7.5,3.357-7.5,7.5s3.357,7.5,7.5,7.5h27.274
			c-0.131,18.337,10.441,34.302,26.523,41.512v67.931H177.69v-19.057c0-10.541-8.576-19.116-19.116-19.116h-36.784
			c-10.541,0-19.116,8.576-19.116,19.116v19.057H88.312V112.812h14.94c4.143,0,7.5-3.357,7.5-7.5s-3.357-7.5-7.5-7.5H87.129
			c-7.619,0-13.819,6.199-13.819,13.819v111.825c0.011,7.608,6.21,13.8,13.819,13.8c89.652,0.242,88.253,0.005,106.103,0
			c7.619,0,13.819-6.199,13.819-13.819v-65.288c26.553,2.087,48.633-19.01,48.633-44.927
			C255.685,88.364,235.462,68.141,210.606,68.141z M117.673,222.253v-19.057c0-2.27,1.846-4.115,4.115-4.115h36.784
			c2.27,0,4.115,1.846,4.115,4.115v19.057H117.673z M198.103,140.567c-12.079-5.544-19.4-18.538-17.176-32.214
			c2.334-14.299,14.771-25.212,29.679-25.212c16.585,0,30.078,13.493,30.078,30.079
			C240.684,134.915,218.227,149.698,198.103,140.567z"/>
	</g>
</g>
<g>
	<g>
		<path d="M227.378,98.739c-3.124-2.719-7.861-2.392-10.582,0.733l-9.477,10.889l-1.536-1.908c-2.599-3.227-7.319-3.737-10.547-1.14
			c-3.227,2.597-3.736,7.319-1.14,10.547c6.021,6.591,7.32,11.577,12.855,11.685c2.175,0.044,4.319-0.874,5.801-2.575l15.358-17.647
			C230.831,106.195,230.502,101.458,227.378,98.739z"/>
	</g>
</g>
<g>
	<g>
		<path d="M504.5,218.602c4.143,0,7.5-3.357,7.5-7.5V36.854c0-16.426-13.363-29.789-29.789-29.789H29.789
			C13.363,7.064,0,20.428,0,36.854v280.443v58.966c0,16.426,13.363,29.79,29.789,29.79H63.31c4.143,0,7.5-3.357,7.5-7.5
			c0-4.143-3.357-7.5-7.5-7.5H29.789c-8.154,0-14.788-6.634-14.788-14.789v-51.465h481.998v51.465
			c0,8.154-6.634,14.789-14.788,14.789c-19.685,0-364.51,0-383.899,0c-4.143,0-7.5,3.357-7.5,7.5c0,4.143,3.357,7.5,7.5,7.5h97.444
			l-3.775,56.503h-7.833c-11.684,0-21.189,9.506-21.189,21.189s9.506,21.189,21.189,21.189h143.704
			c11.684,0,21.189-9.506,21.189-21.189s-9.506-21.189-21.189-21.189h-7.832l-3.775-56.503h165.967
			c16.426,0,29.789-13.364,29.789-29.79v-58.966v-71.193c0-4.143-3.357-7.5-7.5-7.5c-4.143,0-7.5,3.357-7.5,7.5v63.692H15.001
			V36.854c0-8.154,6.634-14.788,14.788-14.788h452.422c8.154,0,14.788,6.634,14.788,14.788v174.248
			C496.999,215.244,500.356,218.602,504.5,218.602z M210.79,406.052h90.419l3.775,56.503h-97.971L210.79,406.052z M327.852,477.556
			c3.412,0,6.188,2.775,6.188,6.188s-2.775,6.188-6.188,6.188H184.148c-3.412,0-6.188-2.775-6.188-6.188s2.775-6.188,6.188-6.188
			h14.849C218.561,477.556,312.375,477.556,327.852,477.556z"/>
	</g>
</g>
<g>
</g>
<g>
</g>
<g>
</g>
<g>
</g>
<g>
</g>
<g>
</g>
<g>
</g>
<g>
</g>
<g>
</g>
<g>
</g>
<g>
</g>
<g>
</g>
<g>
</g>
<g>
</g>
<g>
</g>
</svg>
