<?xml version="1.0" encoding="utf-8"?>
<!-- Generator: Adobe Illustrator 19.0.0, SVG Export Plug-In . SVG Version: 6.00 Build 0)  -->
<svg version="1.1" id="Capa_1" xmlns="http://www.w3.org/2000/svg" xmlns:xlink="http://www.w3.org/1999/xlink" x="0px" y="0px"
	 viewBox="-41 164.9 512 512" style="enable-background:new -41 164.9 512 512;" xml:space="preserve">
<style type="text/css">
	.st0{fill:#81817A;}
</style>
<g>
	<g>
		<path class="st0" d="M444.6,220.5c0-8.3-6.8-15.1-15.1-15.1H2.5c-8.3,0-15.1,6.8-15.1,15.1v233.1c0,8.1,6.8,14.8,15.1,14.8h427
			c8.3,0,15.1-6.6,15.1-14.8V220.5z M2.5,453.4C2.4,453.4,2.4,453.4,2.5,453.4c0-243.4-0.2-233,0-233h427l0.1,0.1v232.9
			C429.5,453.4,439.4,453.4,2.5,453.4z"/>
	</g>
</g>
<g>
	<g>
		<path class="st0" d="M212.3,506.8c-12,0-21.8,9.8-21.8,21.8s9.8,21.8,21.8,21.8s21.8-9.8,21.8-21.8S224.3,506.8,212.3,506.8z
			 M212.3,535.5c-3.8,0-6.8-3.1-6.8-6.8s3.1-6.8,6.8-6.8s6.8,3.1,6.8,6.8S216,535.5,212.3,535.5z"/>
	</g>
</g>
<g>
	<g>
		<path class="st0" d="M385.2,274.3H241.6c-4.1,0-7.5,3.4-7.5,7.5s3.4,7.5,7.5,7.5h143.6c4.1,0,7.5-3.4,7.5-7.5
			S389.4,274.3,385.2,274.3z"/>
	</g>
</g>
<g>
	<g>
		<path class="st0" d="M385.2,302.6H241.6c-4.1,0-7.5,3.4-7.5,7.5s3.4,7.5,7.5,7.5h143.6c4.1,0,7.5-3.4,7.5-7.5
			S389.4,302.6,385.2,302.6z"/>
	</g>
</g>
<g>
	<g>
		<path class="st0" d="M385.2,330.8H208.4c-4.1,0-7.5,3.4-7.5,7.5s3.4,7.5,7.5,7.5h176.8c4.1,0,7.5-3.4,7.5-7.5
			S389.4,330.8,385.2,330.8z"/>
	</g>
</g>
<g>
	<g>
		<path class="st0" d="M385.2,359.6H208.4c-4.1,0-7.5,3.4-7.5,7.5s3.4,7.5,7.5,7.5h176.8c4.1,0,7.5-3.4,7.5-7.5
			S389.4,359.6,385.2,359.6z"/>
	</g>
</g>
<g>
	<g>
		<path class="st0" d="M385.2,387.7H208.4c-4.1,0-7.5,3.4-7.5,7.5s3.4,7.5,7.5,7.5h176.8c4.1,0,7.5-3.4,7.5-7.5
			S389.4,387.7,385.2,387.7z"/>
	</g>
</g>
<g>
	<g>
		<path class="st0" d="M99.2,298.5c-14.8,0-26.9,12.1-26.9,26.9s12.1,26.9,26.9,26.9s26.9-12.1,26.9-26.9
			C126.1,310.5,114,298.5,99.2,298.5z M99.2,337.3c-6.6,0-11.9-5.4-11.9-11.9c0-6.6,5.4-11.9,11.9-11.9s11.9,5.4,11.9,11.9
			C111.1,332,105.8,337.3,99.2,337.3z"/>
	</g>
</g>
<g>
	<g>
		<path class="st0" d="M137.2,419.7h-76c-4.1,0-7.5,3.4-7.5,7.5s3.4,7.5,7.5,7.5h76c4.1,0,7.5-3.4,7.5-7.5S141.3,419.7,137.2,419.7z
			"/>
	</g>
</g>
<g>
	<g>
		<path class="st0" d="M169.6,239.1c-19.4,0-36.1,12.4-42.4,29.7h-30c-4.1,0-7.5,3.4-7.5,7.5s3.4,7.5,7.5,7.5h27.3
			c-0.1,18.3,10.4,34.3,26.5,41.5v67.9h-14.4v-19.1c0-10.5-8.6-19.1-19.1-19.1H80.8c-10.5,0-19.1,8.6-19.1,19.1v19.1H47.3V283.8
			h14.9c4.1,0,7.5-3.4,7.5-7.5s-3.4-7.5-7.5-7.5H46.1c-7.6,0-13.8,6.2-13.8,13.8v111.8c0,7.6,6.2,13.8,13.8,13.8
			c89.7,0.2,88.3,0,106.1,0c7.6,0,13.8-6.2,13.8-13.8v-65.3c26.6,2.1,48.6-19,48.6-44.9C214.7,259.4,194.5,239.1,169.6,239.1z
			 M76.7,393.2v-19.1c0-2.3,1.8-4.1,4.1-4.1h36.8c2.3,0,4.1,1.8,4.1,4.1v19.1H76.7L76.7,393.2z M157.1,311.6
			c-12.1-5.5-19.4-18.5-17.2-32.2c2.3-14.3,14.8-25.2,29.7-25.2c16.6,0,30.1,13.5,30.1,30.1C199.7,305.9,177.2,320.7,157.1,311.6z"
			/>
	</g>
</g>
<g>
	<g>
		<path class="st0" d="M186.4,269.7c-3.1-2.7-7.9-2.4-10.6,0.7l-9.5,10.9l-1.5-1.9c-2.6-3.2-7.3-3.7-10.5-1.1s-3.7,7.3-1.1,10.5
			c6,6.6,7.3,11.6,12.9,11.7c2.2,0,4.3-0.9,5.8-2.6l15.4-17.6C189.8,277.2,189.5,272.4,186.4,269.7z"/>
	</g>
</g>
<g>
	<g>
		<path class="st0" d="M463.5,389.6c4.1,0,7.5-3.4,7.5-7.5V207.8c0-16.4-13.4-29.8-29.8-29.8H-11.2c-16.4,0-29.8,13.4-29.8,29.8
			v280.4v59c0,16.4,13.4,29.8,29.8,29.8h33.5c4.1,0,7.5-3.4,7.5-7.5s-3.4-7.5-7.5-7.5h-33.5c-8.2,0-14.8-6.6-14.8-14.8v-51.5h482
			v51.5c0,8.2-6.6,14.8-14.8,14.8c-19.7,0-364.5,0-383.9,0c-4.1,0-7.5,3.4-7.5,7.5s3.4,7.5,7.5,7.5h97.4l-3.8,56.5h-7.8
			c-11.7,0-21.2,9.5-21.2,21.2s9.5,21.2,21.2,21.2h143.7c11.7,0,21.2-9.5,21.2-21.2s-9.5-21.2-21.2-21.2H279l-3.8-56.5h166
			c16.4,0,29.8-13.4,29.8-29.8v-59v-71.1c0-4.1-3.4-7.5-7.5-7.5s-7.5,3.4-7.5,7.5v63.7H-26v-273c0-8.2,6.6-14.8,14.8-14.8h452.4
			c8.2,0,14.8,6.6,14.8,14.8v174.3C456,386.2,459.4,389.6,463.5,389.6z M169.8,577h90.4l3.8,56.5h-98L169.8,577z M286.9,648.5
			c3.4,0,6.2,2.8,6.2,6.2s-2.8,6.2-6.2,6.2H143.1c-3.4,0-6.2-2.8-6.2-6.2s2.8-6.2,6.2-6.2H158C177.6,648.5,271.4,648.5,286.9,648.5z
			"/>
	</g>
</g>
</svg>
