<svg height="512" viewBox="0 0 64 64" width="512" xmlns="http://www.w3.org/2000/svg"><g id="Alarm"><path d="m43.533 57.611.633 1.9a29.047 29.047 0 0 0 15.247-11.893l-1.685-1.076a27.049 27.049 0 0 1 -14.195 11.069z"/><path d="m56.051 45.471-1.682-1.082a23.115 23.115 0 0 1 -12.095 9.422l.631 1.9a25.118 25.118 0 0 0 13.146-10.24z"/><path d="m10 56h18v2h-18z"/><path d="m6 56h2v2h-2z"/><path d="m30 56h2v2h-2z"/><path d="m60 27.18v-10.18a6.007 6.007 0 0 0 -5-5.91v-1.09a3 3 0 0 0 -6 0v1.09a6 6 0 0 0 -3.93 2.5 21.052 21.052 0 0 0 -9.07-2.56v-6.03a3.009 3.009 0 0 0 -3-3h-28a3.009 3.009 0 0 0 -3 3v54a3.009 3.009 0 0 0 3 3h28a3.009 3.009 0 0 0 3-3v-6.05a21.048 21.048 0 0 0 19.72-17.65 4.873 4.873 0 0 0 1.18-2.3h2.1a3 3 0 0 0 1-5.82zm-9-17.18a1 1 0 0 1 2 0v1h-2zm-5 7a4 4 0 0 1 4-4h4a4 4 0 0 1 4 4v10h-12zm-17.28-13-.31 1.24a1 1 0 0 1 -.97.76h-16.88a1 1 0 0 1 -.97-.76l-.31-1.24zm5.28 55a1 1 0 0 1 -1 1h-28a1 1 0 0 1 -1-1v-54a1 1 0 0 1 1-1h2.22l.43 1.73a3 3 0 0 0 2.91 2.27h16.88a3 3 0 0 0 2.91-2.27l.43-1.73h2.22a1 1 0 0 1 1 1v6.05a20.973 20.973 0 0 0 0 41.9zm1-8a19 19 0 1 1 9.22-35.59 5.984 5.984 0 0 0 -.22 1.59v10.18a3 3 0 0 0 1 5.82h2.1a5.017 5.017 0 0 0 4.9 4 4.789 4.789 0 0 0 1.37-.22 19.073 19.073 0 0 1 -18.37 14.22zm17-16a3.014 3.014 0 0 1 -2.83-2h5.66a3.014 3.014 0 0 1 -2.83 2zm7-4h-14a1 1 0 0 1 0-2h14a1 1 0 0 1 0 2z"/><path d="m38 32a3 3 0 0 0 -2-2.816v-10.184h-2v10.184a2.993 2.993 0 0 0 1 5.816 3.031 3.031 0 0 0 .359-.036l2.741 5.484 1.79-.9-2.736-5.468a2.989 2.989 0 0 0 .846-2.08zm-4 0a1 1 0 1 1 1 1 1 1 0 0 1 -1-1z"/><path d="m34 15h2v2h-2z"/><path d="m26 17.143h2v2h-2z" transform="matrix(.866 -.5 .5 .866 -5.454 15.928)"/><path d="m20.143 23h2v2h-2z" transform="matrix(.5 -.866 .866 .5 -10.212 30.314)"/><path d="m18 31h2v2h-2z"/><path d="m20.143 39h2v2h-2z" transform="matrix(.866 -.5 .5 .866 -17.165 15.927)"/><path d="m26 44.856h2v2h-2z" transform="matrix(.5 -.866 .866 .5 -26.213 46.316)"/><path d="m34 47h2v2h-2z"/><path d="m42 44.856h2v2h-2z" transform="matrix(.866 -.5 .5 .866 -17.166 27.638)"/><path d="m47.856 39h2v2h-2z" transform="matrix(.5 -.866 .866 .5 -10.211 62.316)"/><path d="m51 2h2v2h-2z"/><path d="m47.5 2.938h2v2h-2z" transform="matrix(.866 -.5 .5 .866 4.53 24.779)"/><path d="m44.938 5.5h1.999v1.999h-1.999z" transform="matrix(.5 -.866 .866 .5 17.334 43.029)"/><path d="m57.062 5.5h1.999v1.999h-1.999z" transform="matrix(.866 -.5 .5 .866 4.532 29.91)"/><path d="m54.5 2.938h2v2h-2z" transform="matrix(.5 -.866 .866 .5 24.344 50.036)"/></g></svg>