<?xml version="1.0" encoding="utf-8"?>
<!-- Generator: Adobe Illustrator 19.0.0, SVG Export Plug-In . SVG Version: 6.00 Build 0)  -->
<svg version="1.1" id="Layer_1" xmlns="http://www.w3.org/2000/svg" xmlns:xlink="http://www.w3.org/1999/xlink" x="0px" y="0px"
	 viewBox="-41 164.9 512 512" style="enable-background:new -41 164.9 512 512;" xml:space="preserve">
<style type="text/css">
	.st0{fill:#81817A;}
</style>
<g id="Alarm">
	<path class="st0" d="M305.3,630.8l5.1,15.2c50.3-16.9,93.4-50.4,122-95.1l-13.5-8.6C392.2,583.8,352.1,615.1,305.3,630.8
		L305.3,630.8z"/>
	<path class="st0" d="M405.4,533.7L392,525c-22.7,35.4-56.9,62-96.8,75.4l5,15.2C343.6,601,380.7,572.1,405.4,533.7z"/>
	<path class="st0" d="M37,617.9h144v16H37V617.9z"/>
	<path class="st0" d="M5,617.9h16v16H5V617.9z"/>
	<path class="st0" d="M197,617.9h16v16h-16V617.9z"/>
	<path class="st0" d="M437,387.3v-81.4c0-23.4-16.9-43.4-40-47.3v-8.7c0-13.3-10.7-24-24-24s-24,10.7-24,24v8.7
		c-12.7,2.2-24.1,9.4-31.4,20c-22.3-12.2-47.1-19.2-72.6-20.5v-48.2c0-13.2-10.8-24-24-24H-3c-13.2,0-24,10.8-24,24v432
		c0,13.2,10.8,24,24,24h224c13.2,0,24-10.8,24-24v-48.4c79.3-4,145-62.8,157.8-141.2c4.7-5.2,8-11.5,9.4-18.4H429
		c13.3-0.1,23.9-10.9,23.8-24.2C452.7,399.7,446.4,390.8,437,387.3L437,387.3z M365,249.9c0-4.4,3.6-8,8-8s8,3.6,8,8v8h-16V249.9z
		 M325,305.9c0-17.7,14.3-32,32-32h32c17.7,0,32,14.3,32,32v80h-96V305.9z M186.8,201.9l-2.5,9.9c-0.9,3.6-4.1,6.1-7.8,6.1h-135
		c-3.7,0-6.9-2.5-7.8-6.1l-2.5-9.9H186.8z M229,641.9c0,4.4-3.6,8-8,8H-3c-4.4,0-8-3.6-8-8v-432c0-4.4,3.6-8,8-8h17.8l3.4,13.8
		c2.7,10.7,12.3,18.2,23.3,18.2h135c11,0,20.6-7.5,23.3-18.2l3.4-13.8H221c4.4,0,8,3.6,8,8v48.4c-92.6,4.3-164.1,82.9-159.7,175.5
		c4.1,86.5,73.3,155.7,159.7,159.7V641.9z M237,577.9c-83.9,0.2-152.1-67.7-152.3-151.7s67.7-152.1,151.7-152.3
		c26-0.1,51.7,6.6,74.4,19.3c-1.2,4.1-1.7,8.4-1.8,12.7v81.4c-12.5,4.5-18.9,18.3-14.4,30.7c3.4,9.4,12.3,15.7,22.4,15.8h16.8
		c3.8,18.6,20.2,32,39.2,32c3.7-0.1,7.4-0.6,11-1.8C366.4,530.9,306.1,577.6,237,577.9z M373,449.9c-10.2,0-19.2-6.4-22.6-16h45.3
		C392.2,443.5,383.2,449.9,373,449.9z M429,417.9H317c-4.4,0-8-3.6-8-8s3.6-8,8-8h112c4.4,0,8,3.6,8,8S433.4,417.9,429,417.9z"/>
	<path class="st0" d="M261,425.9c0-10.1-6.4-19.1-16-22.5v-81.5h-16v81.5c-12.5,4.4-19,18.1-14.6,30.5c3.4,9.6,12.5,16,22.6,16
		c1,0,1.9-0.1,2.9-0.3l21.9,43.9l14.3-7.2l-21.9-43.7C258.6,438.1,261,432.1,261,425.9L261,425.9z M229,425.9c0-4.4,3.6-8,8-8
		s8,3.6,8,8s-3.6,8-8,8S229,430.3,229,425.9z"/>
	<path class="st0" d="M229,289.9h16v16h-16V289.9z"/>
	<path class="st0" d="M162.1,312.1l13.9-8l8,13.9l-13.9,8L162.1,312.1z"/>
	<path class="st0" d="M115.2,364.9l8-13.9l13.9,8l-8,13.9L115.2,364.9z"/>
	<path class="st0" d="M101,417.9h16v16h-16V417.9z"/>
	<path class="st0" d="M115.2,486.9l13.9-8l8,13.9l-13.9,8L115.2,486.9z"/>
	<path class="st0" d="M162.1,539.7l8-13.9l13.9,8l-8,13.9L162.1,539.7z"/>
	<path class="st0" d="M229,545.9h16v16h-16V545.9z"/>
	<path class="st0" d="M290.1,533.8l13.9-8l8,13.9l-13.9,8L290.1,533.8z"/>
	<path class="st0" d="M336.9,492.9l8-13.9l13.9,8l-8,13.9L336.9,492.9z"/>
	<path class="st0" d="M365,185.9h16v16h-16V185.9z"/>
	<path class="st0" d="M334.1,198.5l13.9-8l8,13.9l-13.9,8L334.1,198.5z"/>
	<path class="st0" d="M313.5,224.8l8-13.8l13.8,8l-8,13.8L313.5,224.8z"/>
	<path class="st0" d="M410.6,219l13.8-8l8,13.8l-13.8,8L410.6,219z"/>
	<path class="st0" d="M390.1,204.4l8-13.9l13.9,8l-8,13.9L390.1,204.4z"/>
</g>
</svg>
