<?xml version="1.0" encoding="utf-8"?>
<!-- Generator: Adobe Illustrator 19.0.0, SVG Export Plug-In . SVG Version: 6.00 Build 0)  -->
<svg version="1.1" id="Layer_1" xmlns="http://www.w3.org/2000/svg" xmlns:xlink="http://www.w3.org/1999/xlink" x="0px" y="0px"
	 viewBox="-41 164.9 512 512" style="enable-background:new -41 164.9 512 512;" xml:space="preserve">
<style type="text/css">
	.st0{fill:#81817A;}
</style>
<g>
	<g>
		<path class="st0" d="M441,237.1h-34.7l-0.5-1.2l6.8-5.7c3.8-3.2,4.7-8.7,2.1-12.9c-8.9-14.5-21.3-26.9-35.9-35.9
			c-4.2-2.6-9.7-1.7-12.9,2.1l-5.7,6.7l-6.9-2.9l0.8-8.8c0.4-4.9-2.8-9.4-7.6-10.6c-8.3-2-16.8-3-25.3-3l0,0c-8.5,0-17,1-25.3,3
			c-4.8,1.1-8.1,5.6-7.6,10.6l0.8,8.8l-6.9,2.9l-5.7-6.7c-3.2-3.8-8.7-4.7-12.9-2.1c-14.5,9-26.9,21.4-35.9,35.9
			c-2.6,4.2-1.7,9.7,2.1,12.9l6.8,5.7l-0.5,1.2H-11c-16.5,0-30,13.5-30,30v300c0,16.5,13.5,30,30,30h162.6l-14.9,60H125
			c-5.5,0-10,4.5-10,10s4.5,10,10,10h180c5.5,0,10-4.5,10-10s-4.5-10-10-10h-11.7l-14.9-60H441c16.5,0,30-13.5,30-30v-300
			C471,250.5,457.5,237.1,441,237.1L441,237.1z M266.7,203.4l4.6,5.4c2.8,3.3,7.5,4.5,11.5,2.8l20.4-8.5c4-1.7,6.5-5.8,6.1-10.1
			l-0.6-7.1c4.1-0.6,8.2-0.9,12.3-0.9c4.1,0,8.2,0.3,12.3,0.9l-0.6,7.1c-0.4,4.3,2.1,8.4,6.1,10.1l20.4,8.5c4,1.7,8.7,0.5,11.5-2.8
			l4.6-5.4c6.6,5,12.4,10.8,17.4,17.4l-5.4,4.6c-3.3,2.8-4.5,7.5-2.8,11.5l8.5,20.4c1.7,4,5.8,6.5,10.1,6.1l7.1-0.6
			c1.1,8.1,1.1,16.5,0,24.6l-7.1-0.6c-4.3-0.4-8.4,2.1-10.1,6.1l-8.5,20.4c-1.7,4-0.5,8.7,2.8,11.5l5.4,4.6
			c-5,6.6-10.8,12.4-17.4,17.4l-4.6-5.4c-2.8-3.3-7.5-4.5-11.5-2.8l-20.4,8.5c-4,1.7-6.5,5.8-6.1,10.1l0.6,7.1
			c-4.1,0.6-8.2,0.8-12.3,0.8l0,0l0,0c-4.1,0-8.2-0.3-12.3-0.8l0.6-7.1c0.4-4.3-2.1-8.4-6.1-10.1l-20.4-8.5c-4-1.7-8.7-0.5-11.5,2.8
			l-4.6,5.4c-6.5-5-12.4-10.8-17.4-17.4l5.4-4.6c3.3-2.8,4.5-7.5,2.8-11.5l-8.5-20.4c-1.7-4-5.8-6.5-10.1-6.1l-7.1,0.6
			c-1.1-8.2-1.1-16.5,0-24.6l7.1,0.6c4.3,0.4,8.4-2.1,10.1-6.1l8.5-20.4c1.7-4,0.5-8.7-2.8-11.5l-5.4-4.6
			C254.2,214.2,260.1,208.3,266.7,203.4L266.7,203.4z M-21,567.1v-10l0,0h191c5.5,0,10-4.5,10-10s-4.5-10-10-10H-21l0,0v-270
			c0-5.5,4.5-10,10-10h223.5c-2.4,14.3-1.9,29.2,1.5,43.4c1.1,4.8,5.6,8.1,10.6,7.6l8.8-0.8l2.9,6.9l-6.7,5.7
			c-3.8,3.2-4.7,8.7-2.1,12.9c9,14.5,21.4,26.9,35.8,35.9c4.2,2.6,9.7,1.7,12.9-2.1l5.7-6.8l6.9,2.9l-0.8,8.8
			c-0.4,4.9,2.8,9.4,7.6,10.6c8.3,2,16.8,3,25.3,3h0.1c8.5,0,17-1,25.3-3c4.8-1.1,8.1-5.6,7.6-10.6l-0.8-8.8l6.9-2.9l5.7,6.8
			c3.2,3.8,8.7,4.7,12.9,2.1c14.5-8.9,26.9-21.3,35.8-35.9c2.6-4.2,1.7-9.7-2.1-12.9l-6.7-5.7l2.9-6.9l8.8,0.8
			c4.9,0.4,9.4-2.8,10.6-7.6c3.4-14.2,3.9-29,1.5-43.4H441c5.5,0,10,4.5,10,10v270l0,0H260c-5.5,0-10,4.5-10,10s4.5,10,10,10h113.3
			v20H-11C-16.5,577.1-21,572.6-21,567.1L-21,567.1z M272.7,657.1H157.3l14.9-60h85.6L272.7,657.1z M441,577.1h-47.7v-20H451l0,0v10
			C451,572.6,446.5,577.1,441,577.1z"/>
		<path class="st0" d="M321,320.1c24.8,0,45-20.2,45-45s-20.2-45-45-45s-45,20.2-45,45S296.2,320.1,321,320.1z M321,250.1
			c13.8,0,25,11.2,25,25s-11.2,25-25,25s-25-11.2-25-25S307.2,250.1,321,250.1z"/>
		<path class="st0" d="M54,279.6H9c-5.5,0-10,4.5-10,10v45c0,5.5,4.5,10,10,10h45c5.5,0,10-4.5,10-10v-45
			C64,284.1,59.5,279.6,54,279.6z M44,324.6H19v-25h25V324.6z"/>
		<path class="st0" d="M54,364.6H9c-5.5,0-10,4.5-10,10v45c0,5.5,4.5,10,10,10h45c5.5,0,10-4.5,10-10v-45
			C64,369.1,59.5,364.6,54,364.6z M44,409.6H19v-25h25V409.6z"/>
		<path class="st0" d="M54,449.6H9c-5.5,0-10,4.5-10,10v45c0,5.5,4.5,10,10,10h45c5.5,0,10-4.5,10-10v-45
			C64,454.1,59.5,449.6,54,449.6z M44,494.6H19v-25h25V494.6z"/>
		<path class="st0" d="M139,279.6H94c-5.5,0-10,4.5-10,10v45c0,5.5,4.5,10,10,10h45c5.5,0,10-4.5,10-10v-45
			C149,284.1,144.5,279.6,139,279.6z M129,324.6h-25v-25h25V324.6z"/>
		<path class="st0" d="M139,364.6H94c-5.5,0-10,4.5-10,10v45c0,5.5,4.5,10,10,10h45c5.5,0,10-4.5,10-10v-45
			C149,369.1,144.5,364.6,139,364.6z M129,409.6h-25v-25h25V409.6z"/>
		<path class="st0" d="M139,449.6H94c-5.5,0-10,4.5-10,10v45c0,5.5,4.5,10,10,10h45c5.5,0,10-4.5,10-10v-45
			C149,454.1,144.5,449.6,139,449.6z M129,494.6h-25v-25h25V494.6z"/>
		<path class="st0" d="M224,449.6h-45c-5.5,0-10,4.5-10,10v45c0,5.5,4.5,10,10,10h45c5.5,0,10-4.5,10-10v-45
			C234,454.1,229.5,449.6,224,449.6z M214,494.6h-25v-25h25V494.6z"/>
		<path class="st0" d="M421,494.6h-78.5c-5.5,0-10,4.5-10,10s4.5,10,10,10H421c5.5,0,10-4.5,10-10S426.5,494.6,421,494.6z"/>
		<path class="st0" d="M321,469.6h100c5.5,0,10-4.5,10-10s-4.5-10-10-10H321c-5.5,0-10,4.5-10,10S315.5,469.6,321,469.6z"/>
		<path class="st0" d="M215,537.1L215,537.1c-5.5,0-10,4.5-10,10s4.5,10,10,10s10-4.5,10-10S220.5,537.1,215,537.1z"/>
	</g>
</g>
</svg>
