<svg id="Out_line" height="512" viewBox="0 0 512 512" width="512" xmlns="http://www.w3.org/2000/svg" data-name="Out line"><path d="m24 416h352a8.00039 8.00039 0 0 0 8-8v-384a8.00039 8.00039 0 0 0 -8-8h-352a8.00039 8.00039 0 0 0 -8 8v384a8.00039 8.00039 0 0 0 8 8zm328-264h16v32h-16zm16-120v104h-16v-24h-16v272h16v-184h16v200h-336v-304h320v-16h-320v-48z"/><circle cx="56" cy="56" r="8"/><circle cx="88" cy="56" r="8"/><circle cx="120" cy="56" r="8"/><path d="m152 136h32v16h-32z"/><path d="m200 136h120v16h-120z"/><path d="m136 168h32v16h-32z"/><path d="m184 168h88v16h-88z"/><path d="m152 232h32v16h-32z"/><path d="m200 232h120v16h-120z"/><path d="m136 264h32v16h-32z"/><path d="m184 264h88v16h-88z"/><path d="m152 328h32v16h-32z"/><path d="m200 328h120v16h-120z"/><path d="m136 360h32v16h-32z"/><path d="m184 360h88v16h-88z"/><path d="m108.68555 128h-44.68555a8.00039 8.00039 0 0 0 -8 8v48a8.00039 8.00039 0 0 0 8 8h48a8.00039 8.00039 0 0 0 8-8v-44.68555l13.65723-13.65722-11.31446-11.31446zm-4.68555 48h-32v-32h20.68555l-10.34278 10.34277 11.31446 11.31446 10.34277-10.34278z"/><path d="m108.68555 224h-44.68555a8.00039 8.00039 0 0 0 -8 8v48a8.00039 8.00039 0 0 0 8 8h48a8.00039 8.00039 0 0 0 8-8v-44.68555l13.65723-13.65722-11.31446-11.31446zm-4.68555 48h-32v-32h20.68555l-10.34278 10.34277 11.31446 11.31446 10.34277-10.34278z"/><path d="m122.34277 306.34277-13.65722 13.65723h-44.68555a8.00039 8.00039 0 0 0 -8 8v48a8.00039 8.00039 0 0 0 8 8h48a8.00039 8.00039 0 0 0 8-8v-44.68555l13.65723-13.65722zm-18.34277 61.65723h-32v-32h20.68555l-10.34278 10.34277 11.31446 11.31446 10.34277-10.34278z"/><path d="m487.626 240.32129a23.98018 23.98018 0 0 0 -18.17092-8.32129h-69.45508v16h39.99707a8.00034 8.00034 0 0 1 7.91309 9.17188l-27.25977 184.001a8.04676 8.04676 0 0 1 -7.91309 6.82712h-234.19238a7.99913 7.99913 0 0 1 -7.91308-9.17188l.83789-5.65527-15.82813-2.3457-.83789 5.65625a23.98454 23.98454 0 0 0 1.11429 11.5166h-115.918a24 24 0 0 0 0 48h400a23.97982 23.97982 0 0 0 18.8584-38.81738 23.88878 23.88878 0 0 0 7.0791-13.665l27.25879-184.001a23.9814 23.9814 0 0 0 -5.57029-19.19533zm-455.626 231.67871a8.00917 8.00917 0 0 1 8-8h177.37622a23.94021 23.94021 0 0 0 0 16h-177.37622a8.00917 8.00917 0 0 1 -8-8zm408 8h-200a8 8 0 0 1 0-16h200a8 8 0 0 1 0 16zm37.36816-222.82812-27.25781 184a8.04952 8.04952 0 0 1 -7.91504 6.82812h-6.84863a23.5846 23.5846 0 0 0 1.13184-4.48242l27.25976-184.001a23.98806 23.98806 0 0 0 -1.11428-11.51658h6.83106a7.99913 7.99913 0 0 1 7.91308 9.17188z"/></svg>