<?xml version="1.0" encoding="utf-8"?>
<!-- Generator: Adobe Illustrator 19.0.0, SVG Export Plug-In . SVG Version: 6.00 Build 0)  -->
<svg version="1.1" id="Out_line" xmlns="http://www.w3.org/2000/svg" xmlns:xlink="http://www.w3.org/1999/xlink" x="0px" y="0px"
	 viewBox="-41 164.9 512 512" style="enable-background:new -41 164.9 512 512;" xml:space="preserve">
<style type="text/css">
	.st0{fill:#81817A;}
</style>
<path class="st0" d="M-13,581.9h352c4.4,0,8-3.6,8-8v-384c0-4.4-3.6-8-8-8H-13c-4.4,0-8,3.6-8,8v384C-21,578.3-17.4,581.9-13,581.9z
	 M315,317.9h16v32h-16V317.9z M331,197.9v104h-16v-24h-16v272h16v-184h16v200H-5v-304h320v-16H-5v-48L331,197.9L331,197.9z"/>
<circle class="st0" cx="18" cy="221.9" r="8"/>
<circle class="st0" cx="50" cy="221.9" r="8"/>
<circle class="st0" cx="82" cy="221.9" r="8"/>
<path class="st0" d="M114,301.9h32v16h-32V301.9z"/>
<path class="st0" d="M162,301.9h120v16H162V301.9z"/>
<path class="st0" d="M98,333.9h32v16H98V333.9z"/>
<path class="st0" d="M146,333.9h88v16h-88V333.9z"/>
<path class="st0" d="M114,397.9h32v16h-32V397.9z"/>
<path class="st0" d="M162,397.9h120v16H162V397.9z"/>
<path class="st0" d="M98,429.9h32v16H98V429.9z"/>
<path class="st0" d="M146,429.9h88v16h-88V429.9z"/>
<path class="st0" d="M114,493.9h32v16h-32V493.9z"/>
<path class="st0" d="M162,493.9h120v16H162V493.9z"/>
<path class="st0" d="M98,525.9h32v16H98V525.9z"/>
<path class="st0" d="M146,525.9h88v16h-88V525.9z"/>
<path class="st0" d="M70.7,293.9H26c-4.4,0-8,3.6-8,8v48c0,4.4,3.6,8,8,8h48c4.4,0,8-3.6,8-8v-44.7l13.7-13.7l-11.3-11.3L70.7,293.9
	z M66,341.9H34v-32h20.7l-10.3,10.3l11.3,11.3L66,321.2V341.9z"/>
<path class="st0" d="M70.7,389.9H26c-4.4,0-8,3.6-8,8v48c0,4.4,3.6,8,8,8h48c4.4,0,8-3.6,8-8v-44.7l13.7-13.7l-11.3-11.3L70.7,389.9
	z M66,437.9H34v-32h20.7l-10.3,10.3l11.3,11.3L66,417.2V437.9z"/>
<path class="st0" d="M84.3,472.2l-13.7,13.7H26c-4.4,0-8,3.6-8,8v48c0,4.4,3.6,8,8,8h48c4.4,0,8-3.6,8-8v-44.7l13.7-13.7L84.3,472.2
	z M66,533.9H34v-32h20.7l-10.3,10.3l11.3,11.3L66,513.2V533.9z"/>
<path class="st0" d="M449.6,406.2c-4.6-5.3-11.2-8.3-18.2-8.3H362v16h40c4.4,0,8,3.6,8,8c0,0.4,0,0.8-0.1,1.2l-27.3,184
	c-0.6,3.9-4,6.8-7.9,6.8H140.5c-4.4,0-8-3.6-8-8c0-0.4,0-0.8,0.1-1.2l0.8-5.7l-15.8-2.3l-0.8,5.7c-0.6,3.9-0.2,7.8,1.1,11.5H2
	c-13.3,0-24,10.7-24,24s10.7,24,24,24h400c13.2,0,24-10.7,24-24c0-5.4-1.8-10.6-5.1-14.9c3.8-3.6,6.3-8.5,7.1-13.7l27.3-184
	C456.2,418.5,454.2,411.5,449.6,406.2L449.6,406.2z M-6,637.9c0-4.4,3.6-8,8-8h177.4c-1.8,5.2-1.8,10.8,0,16H2
	C-2.4,645.9-6,642.3-6,637.9z M402,645.9H202c-4.4,0-8-3.6-8-8s3.6-8,8-8h200c4.4,0,8,3.6,8,8S406.4,645.9,402,645.9z M439.4,423.1
	l-27.3,184c-0.6,3.9-4,6.8-7.9,6.8h-6.8c0.5-1.5,0.9-3,1.1-4.5l27.3-184c0.6-3.9,0.2-7.8-1.1-11.5h6.8c4.4,0,8,3.6,8,8
	C439.5,422.3,439.4,422.7,439.4,423.1L439.4,423.1z"/>
</svg>
